<?xml version="1.0" encoding="UTF-8" standalone="no"?>
<!-- Created with Inkscape (http://www.inkscape.org/) -->

<svg
   width="100mm"
   height="100mm"
   viewBox="0 0 100 100"
   version="1.1"
   id="svg1"
   xml:space="preserve"
   inkscape:version="1.3 (0e150ed6c4, 2023-07-21)"
   sodipodi:docname="icon.svg"
   inkscape:export-filename="icon.png"
   inkscape:export-xdpi="101.19525"
   inkscape:export-ydpi="101.19525"
   xmlns:inkscape="http://www.inkscape.org/namespaces/inkscape"
   xmlns:sodipodi="http://sodipodi.sourceforge.net/DTD/sodipodi-0.dtd"
   xmlns="http://www.w3.org/2000/svg"
   xmlns:svg="http://www.w3.org/2000/svg"><sodipodi:namedview
     id="namedview1"
     pagecolor="#ffffff"
     bordercolor="#999999"
     borderopacity="1"
     inkscape:showpageshadow="0"
     inkscape:pageopacity="0"
     inkscape:pagecheckerboard="0"
     inkscape:deskcolor="#d1d1d1"
     inkscape:document-units="mm"
     inkscape:zoom="1.0179639"
     inkscape:cx="378.69711"
     inkscape:cy="346.77064"
     inkscape:window-width="1904"
     inkscape:window-height="1004"
     inkscape:window-x="0"
     inkscape:window-y="37"
     inkscape:window-maximized="0"
     inkscape:current-layer="g3" /><defs
     id="defs1" /><g
     inkscape:label="Layer 1"
     inkscape:groupmode="layer"
     id="layer1"
     transform="translate(-74.750092,-66.264768)"><g
       id="g1"
       transform="matrix(0.8359581,0,0,0.8359581,17.2244,16.108131)"><g
         transform="matrix(3.3611009,0,0,3.3611009,64.666498,-3400.3747)"
         id="g9" /><g
         id="g2"
         transform="matrix(1.1159575,0,0,1.1159575,-13.146535,-5.0845797)"><g
           id="g3"
           transform="translate(13.66715,13.667152)"><path
             d="m 71.687433,70.796222 c -6.578096,0 -11.91037,4.052541 -11.91037,9.005509 v 63.039779 c 0,4.95298 5.332274,9.00551 11.91037,9.00551 h 35.731107 11.91038 35.73111 c 6.58048,0 11.91037,-4.05253 11.91037,-9.00551 V 79.801731 c 0,-4.952968 -5.32989,-9.005509 -11.91037,-9.005509 h -35.73111 -11.91038 z"
             fill="#bdc3c7"
             id="path1"
             style="stroke-width:5.17836" /><path
             d="m 71.687434,66.293674 c -6.578097,0 -11.910371,4.032029 -11.910371,9.005509 v 63.039787 c 0,4.97553 5.332274,9.00551 11.910371,9.00551 h 35.731116 11.91037 35.73111 c 6.58049,0 11.91038,-4.02998 11.91038,-9.00551 V 75.299183 c 0,-4.97348 -5.32989,-9.005509 -11.91038,-9.005509 h -35.73111 -11.91037 z"
             fill="#ecf0f1"
             id="path2"
             style="stroke-width:5.17836" /><path
             d="m 71.687433,44.653675 c -6.578098,0 -11.91037,6.933407 -11.91037,15.407196 V 83.171106 H 166.97041 V 60.060871 c 0,-8.473789 -5.32991,-15.407196 -11.91036,-15.407196 h -35.73113 -11.91037 z"
             fill="#e74c3c"
             id="path3"
             style="stroke-width:6.7731" /><rect
             fill="#c0392b"
             height="3.3597169"
             width="107.19334"
             x="59.777065"
             y="83.092514"
             id="rect7"
             style="stroke-width:4.47299" /><text
             xml:space="preserve"
             style="font-size:28.1695px;font-family:'DecoType Naskh Variants';-inkscape-font-specification:'DecoType Naskh Variants';direction:rtl;fill:#4d4d4d;fill-opacity:1;stroke-width:0.0660219;paint-order:markers fill stroke"
             x="137.34807"
             y="112.87218"
             id="text1"><tspan
               sodipodi:role="line"
               id="tspan1"
               style="font-style:normal;font-variant:normal;font-weight:normal;font-stretch:normal;font-family:'Old Antic Decorative';-inkscape-font-specification:'Old Antic Decorative';fill:#4d4d4d;fill-opacity:1;stroke-width:0.0660219"
               x="137.34807"
               y="112.87218">هجرى</tspan></text><text
             xml:space="preserve"
             style="font-style:normal;font-variant:normal;font-weight:normal;font-stretch:normal;font-size:18.1445px;font-family:'Old Antic Decorative';-inkscape-font-specification:'Old Antic Decorative';direction:rtl;fill:#ecf0f1;fill-opacity:1;stroke-width:0.0425262;paint-order:markers fill stroke"
             x="119.10148"
             y="78.568436"
             id="text2"><tspan
               sodipodi:role="line"
               id="tspan2"
               style="font-style:normal;font-variant:normal;font-weight:normal;font-stretch:normal;font-family:'Agency FB';-inkscape-font-specification:'Agency FB';fill:#ecf0f1;fill-opacity:1;stroke-width:0.0425262"
               x="119.10148"
               y="78.568436">15</tspan></text></g></g></g></g></svg>
