<?xml version="1.0" encoding="UTF-8" standalone="no"?>
<!-- Created with Inkscape (http://www.inkscape.org/) -->

<svg
   width="66.514977mm"
   height="77.600807mm"
   viewBox="0 0 66.514977 77.600807"
   version="1.1"
   id="svg1"
   xml:space="preserve"
   inkscape:version="1.3 (0e150ed6c4, 2023-07-21)"
   sodipodi:docname="icon.svg"
   inkscape:export-filename="icon.png"
   inkscape:export-xdpi="101.19525"
   inkscape:export-ydpi="101.19525"
   xmlns:inkscape="http://www.inkscape.org/namespaces/inkscape"
   xmlns:sodipodi="http://sodipodi.sourceforge.net/DTD/sodipodi-0.dtd"
   xmlns="http://www.w3.org/2000/svg"
   xmlns:svg="http://www.w3.org/2000/svg"><sodipodi:namedview
     id="namedview1"
     pagecolor="#ffffff"
     bordercolor="#999999"
     borderopacity="1"
     inkscape:showpageshadow="0"
     inkscape:pageopacity="0"
     inkscape:pagecheckerboard="0"
     inkscape:deskcolor="#d1d1d1"
     inkscape:document-units="mm"
     inkscape:zoom="1.4396184"
     inkscape:cx="84.397365"
     inkscape:cy="169.48936"
     inkscape:window-width="1904"
     inkscape:window-height="1004"
     inkscape:window-x="0"
     inkscape:window-y="37"
     inkscape:window-maximized="0"
     inkscape:current-layer="layer1" /><defs
     id="defs1" /><g
     inkscape:label="Layer 1"
     inkscape:groupmode="layer"
     id="layer1"
     transform="translate(-71.742512,-56.033726)"><g
       transform="matrix(3.3611009,0,0,3.3611009,64.666789,-3400.3747)"
       id="g9"><path
         d="m 5,1032.4 c -1.1046,0 -2,0.9 -2,2 v 14 c 0,1.1 0.8954,2 2,2 h 6 2 6 c 1.105,0 2,-0.9 2,-2 v -14 c 0,-1.1 -0.895,-2 -2,-2 h -6 -2 z"
         fill="#bdc3c7"
         id="path1" /><path
         d="M 5,3 C 3.8954,3 3,3.8954 3,5 v 14 c 0,1.105 0.8954,2 2,2 h 6 2 6 c 1.105,0 2,-0.895 2,-2 V 5 C 21,3.8954 20.105,3 19,3 h -6 -2 z"
         fill="#ecf0f1"
         transform="translate(0,1028.4)"
         id="path2" /><path
         d="m 5,1031.4 c -1.1046,0 -2,0.9 -2,2 v 3 h 18 v -3 c 0,-1.1 -0.895,-2 -2,-2 h -6 -2 z"
         fill="#e74c3c"
         id="path3" /><path
         d="m 7,5.5 a 1.5,1.5 0 1 1 -3,0 1.5,1.5 0 1 1 3,0 z"
         fill="#c0392b"
         transform="translate(0.5,1028.4)"
         id="path4" /><path
         d="M 6,1 C 5.4477,1 5,1.4477 5,2 V 5 C 5,5.5523 5.4477,6 6,6 6.5523,6 7,5.5523 7,5 V 2 C 7,1.4477 6.5523,1 6,1 Z"
         fill="#bdc3c7"
         transform="translate(0,1028.4)"
         id="path5" /><path
         d="m 7,5.5 a 1.5,1.5 0 1 1 -3,0 1.5,1.5 0 1 1 3,0 z"
         fill="#c0392b"
         transform="translate(12.5,1028.4)"
         id="path6" /><path
         d="m 18,1029.4 c -0.552,0 -1,0.4 -1,1 v 3 c 0,0.5 0.448,1 1,1 0.552,0 1,-0.5 1,-1 v -3 c 0,-0.6 -0.448,-1 -1,-1 z"
         fill="#bdc3c7"
         id="path7" /><rect
         fill="#c0392b"
         height="1"
         transform="translate(0,1028.4)"
         width="18"
         x="3"
         y="8"
         id="rect7" /></g><text
       xml:space="preserve"
       style="font-size:28.1811px;font-family:'DecoType Naskh Variants';-inkscape-font-specification:'DecoType Naskh Variants';direction:rtl;fill:#4d4d4d;fill-opacity:1;stroke-width:0.0660491;paint-order:markers fill stroke"
       x="128.98421"
       y="112.86249"
       id="text1"><tspan
         sodipodi:role="line"
         id="tspan1"
         style="font-style:normal;font-variant:normal;font-weight:normal;font-stretch:normal;font-family:'Old Antic Decorative';-inkscape-font-specification:'Old Antic Decorative';fill:#4d4d4d;fill-opacity:1;stroke-width:0.0660491"
         x="128.98421"
         y="112.86249">هجرى</tspan></text><text
       xml:space="preserve"
       style="font-style:normal;font-variant:normal;font-weight:normal;font-stretch:normal;font-size:18.152px;font-family:'Old Antic Decorative';-inkscape-font-specification:'Old Antic Decorative';direction:rtl;fill:#ffffff;fill-opacity:1;stroke-width:0.0425437;paint-order:markers fill stroke"
       x="110.73011"
       y="80.953613"
       id="text2"><tspan
         sodipodi:role="line"
         id="tspan2"
         style="font-style:normal;font-variant:normal;font-weight:normal;font-stretch:normal;font-family:'Agency FB';-inkscape-font-specification:'Agency FB';fill:#ffffff;fill-opacity:1;stroke-width:0.0425437"
         x="110.73011"
         y="80.953613">15</tspan></text></g></svg>
